<svg width="106" height="32" viewBox="0 0 106 32" fill="none" xmlns="http://www.w3.org/2000/svg">
<path d="M38.4445 25L41.1008 9H51.6945L51.2258 11.7891H44.0148L43.3898 15.6016H49.8977L49.4289 18.3906H42.9211L41.8273 25H38.4445ZM50.1512 25L52.1512 13H55.4793L53.4793 25H50.1512ZM54.159 11.4375C53.6642 11.4375 53.2553 11.2734 52.9324 10.9453C52.6147 10.612 52.4845 10.2161 52.5418 9.75781C52.5991 9.28906 52.823 8.89323 53.2137 8.57031C53.6043 8.24219 54.047 8.07812 54.5418 8.07812C55.0366 8.07812 55.4402 8.24219 55.7527 8.57031C56.0652 8.89323 56.1954 9.28906 56.1434 9.75781C56.0913 10.2161 55.8699 10.612 55.4793 10.9453C55.0939 11.2734 54.6538 11.4375 54.159 11.4375ZM61.0297 9L58.3734 25H55.0453L57.7016 9H61.0297ZM65.377 25.2344C64.1478 25.2344 63.1296 24.9844 62.3223 24.4844C61.515 23.9792 60.9473 23.2656 60.6191 22.3437C60.2962 21.4167 60.2415 20.3203 60.4551 19.0547C60.6634 17.8203 61.0827 16.737 61.7129 15.8047C62.3483 14.8724 63.1452 14.1458 64.1035 13.625C65.0618 13.1042 66.1296 12.8438 67.3066 12.8438C68.0983 12.8438 68.8145 12.9714 69.4551 13.2266C70.1009 13.4766 70.6374 13.8568 71.0645 14.3672C71.4915 14.8724 71.7832 15.5052 71.9395 16.2656C72.1009 17.026 72.0983 17.9167 71.9316 18.9375L71.7832 19.8516H61.6582L61.9785 17.7891H68.9785C69.0566 17.3099 69.0254 16.8854 68.8848 16.5156C68.7441 16.1458 68.5098 15.8568 68.1816 15.6484C67.8535 15.4349 67.4499 15.3281 66.9707 15.3281C66.4811 15.3281 66.0228 15.4479 65.5957 15.6875C65.1686 15.9271 64.8092 16.2422 64.5176 16.6328C64.2311 17.0182 64.0462 17.4375 63.9629 17.8906L63.5957 19.9375C63.4915 20.5677 63.5124 21.0911 63.6582 21.5078C63.8092 21.9245 64.0697 22.237 64.4395 22.4453C64.8092 22.6484 65.278 22.75 65.8457 22.75C66.2155 22.75 66.5618 22.6979 66.8848 22.5938C67.2129 22.4896 67.5046 22.3359 67.7598 22.1328C68.015 21.9245 68.2233 21.6667 68.3848 21.3594L71.4238 21.5625C71.1426 22.3021 70.7155 22.9479 70.1426 23.5C69.5697 24.0469 68.8796 24.474 68.0723 24.7813C67.2702 25.0833 66.3717 25.2344 65.377 25.2344ZM72.0719 25L74.7281 9H78.1109L76.9469 16.0547H77.1578L84.0797 9H88.1344L81.0328 16.1641L85.5484 25H81.5016L78.2359 18.4219L76.2203 20.4687L75.4547 25H72.0719ZM86.8293 25L88.8293 13H92.1574L90.1574 25H86.8293ZM90.8371 11.4375C90.3423 11.4375 89.9335 11.2734 89.6105 10.9453C89.2928 10.612 89.1626 10.2161 89.2199 9.75781C89.2772 9.28906 89.5012 8.89323 89.8918 8.57031C90.2824 8.24219 90.7251 8.07812 91.2199 8.07812C91.7147 8.07812 92.1184 8.24219 92.4309 8.57031C92.7434 8.89323 92.8736 9.28906 92.8215 9.75781C92.7694 10.2161 92.548 10.612 92.1574 10.9453C91.772 11.2734 91.3319 11.4375 90.8371 11.4375ZM100.106 13L99.6922 15.5H92.4578L92.8797 13H100.106ZM94.9891 10.125H98.3172L96.4578 21.3125C96.4057 21.6198 96.4135 21.8594 96.4813 22.0312C96.549 22.1979 96.6609 22.3151 96.8172 22.3828C96.9786 22.4505 97.1714 22.4844 97.3953 22.4844C97.5516 22.4844 97.7104 22.4714 97.8719 22.4453C98.0333 22.4141 98.1557 22.3906 98.2391 22.375L98.3641 24.8516C98.1766 24.9089 97.924 24.9714 97.6063 25.0391C97.2938 25.1068 96.924 25.1484 96.4969 25.1641C95.6844 25.1953 94.9969 25.0885 94.4344 24.8437C93.8719 24.5937 93.4682 24.2109 93.2234 23.6953C92.9786 23.1797 92.9266 22.5312 93.0672 21.75L94.9891 10.125Z" fill="white"/>
<g clip-path="url(#clip0_229_72)">
<rect x="2" y="2" width="28" height="28" rx="6" fill="#123123"/>
<g filter="url(#filter0_f_229_72)">
<ellipse cx="22" cy="20.5" rx="13" ry="15.5" fill="#04684C"/>
</g>
<g filter="url(#filter1_f_229_72)">
<ellipse cx="7.61683" cy="5.09062" rx="13.7097" ry="15.1544" transform="rotate(31.5925 7.61683 5.09062)" fill="#72C19B"/>
</g>
</g>
<defs>
<filter id="filter0_f_229_72" x="1.1" y="-2.9" width="41.8" height="46.8" filterUnits="userSpaceOnUse" color-interpolation-filters="sRGB">
<feFlood flood-opacity="0" result="BackgroundImageFix"/>
<feBlend mode="normal" in="SourceGraphic" in2="BackgroundImageFix" result="shape"/>
<feGaussianBlur stdDeviation="3.95" result="effect1_foregroundBlur_229_72"/>
</filter>
<filter id="filter1_f_229_72" x="-14.3059" y="-17.484" width="43.8451" height="45.1493" filterUnits="userSpaceOnUse" color-interpolation-filters="sRGB">
<feFlood flood-opacity="0" result="BackgroundImageFix"/>
<feBlend mode="normal" in="SourceGraphic" in2="BackgroundImageFix" result="shape"/>
<feGaussianBlur stdDeviation="3.9" result="effect1_foregroundBlur_229_72"/>
</filter>
<clipPath id="clip0_229_72">
<rect x="2" y="2" width="28" height="28" rx="6" fill="white"/>
</clipPath>
</defs>
</svg>
