<svg width="78" height="24" viewBox="0 0 78 24" fill="none" xmlns="http://www.w3.org/2000/svg">
<path d="M28.389 18L30.4415 5.63636H38.6276L38.2654 7.79155H32.6933L32.2103 10.7376H37.2391L36.8769 12.8928H31.8481L31.0029 18H28.389ZM37.435 18L38.9804 8.72727H41.5522L40.0067 18H37.435ZM40.5319 7.51989C40.1496 7.51989 39.8337 7.39311 39.5841 7.13956C39.3386 6.88198 39.238 6.57611 39.2823 6.22195C39.3266 5.85973 39.4996 5.55386 39.8015 5.30433C40.1033 5.05078 40.4454 4.924 40.8278 4.924C41.2101 4.924 41.522 5.05078 41.7635 5.30433C42.005 5.55386 42.1056 5.85973 42.0653 6.22195C42.0251 6.57611 41.854 6.88198 41.5522 7.13956C41.2544 7.39311 40.9143 7.51989 40.5319 7.51989ZM45.8411 5.63636L43.7886 18H41.2168L43.2694 5.63636H45.8411ZM49.2004 18.1811C48.2506 18.1811 47.4637 17.9879 46.8399 17.6016C46.2161 17.2112 45.7774 16.6598 45.5239 15.9474C45.2744 15.2311 45.2321 14.3839 45.3971 13.4059C45.5581 12.4521 45.8821 11.6149 46.3691 10.8945C46.8601 10.1741 47.4758 9.61269 48.2164 9.21023C48.9569 8.80776 49.7819 8.60653 50.6915 8.60653C51.3032 8.60653 51.8566 8.70514 52.3517 8.90234C52.8507 9.09553 53.2652 9.38932 53.5953 9.78374C53.9253 10.1741 54.1507 10.6631 54.2714 11.2507C54.3962 11.8383 54.3941 12.5265 54.2654 13.3153L54.1507 14.0217H46.3268L46.5743 12.4279H51.9834C52.0438 12.0576 52.0196 11.7296 51.911 11.4439C51.8023 11.1581 51.6212 10.9348 51.3676 10.7738C51.1141 10.6088 50.8022 10.5263 50.4319 10.5263C50.0536 10.5263 49.6994 10.6188 49.3694 10.804C49.0394 10.9891 48.7617 11.2326 48.5363 11.5344C48.315 11.8323 48.1721 12.1562 48.1077 12.5064L47.824 14.0881C47.7435 14.575 47.7596 14.9795 47.8722 15.3015C47.989 15.6235 48.1902 15.8649 48.4759 16.0259C48.7617 16.1829 49.1239 16.2614 49.5626 16.2614C49.8483 16.2614 50.116 16.2211 50.3655 16.1406C50.6191 16.0601 50.8444 15.9414 51.0416 15.7844C51.2388 15.6235 51.3998 15.4242 51.5246 15.1868L53.873 15.3438C53.6556 15.9152 53.3256 16.4143 52.8829 16.8409C52.4402 17.2635 51.9069 17.5935 51.2831 17.831C50.6633 18.0644 49.9691 18.1811 49.2004 18.1811ZM54.3737 18L56.4263 5.63636H59.0403L58.1408 11.0877H58.3038L63.6525 5.63636H66.7857L61.2981 11.1722L64.7874 18H61.6603L59.1369 12.9169L57.5793 14.4986L56.9877 18H54.3737ZM65.7772 18L67.3226 8.72727H69.8944L68.3489 18H65.7772ZM68.8741 7.51989C68.4918 7.51989 68.1759 7.39311 67.9263 7.13956C67.6808 6.88198 67.5802 6.57611 67.6245 6.22195C67.6688 5.85973 67.8418 5.55386 68.1437 5.30433C68.4455 5.05078 68.7876 4.924 69.1699 4.924C69.5523 4.924 69.8642 5.05078 70.1057 5.30433C70.3471 5.55386 70.4478 5.85973 70.4075 6.22195C70.3673 6.57611 70.1962 6.88198 69.8944 7.13956C69.5965 7.39311 69.2565 7.51989 68.8741 7.51989ZM76.0366 8.72727L75.7167 10.6591H70.1265L70.4525 8.72727H76.0366ZM72.0825 6.50568H74.6542L73.2174 15.1506C73.1772 15.388 73.1832 15.5732 73.2355 15.706C73.2878 15.8348 73.3744 15.9253 73.4951 15.9776C73.6199 16.0299 73.7688 16.0561 73.9418 16.0561C74.0626 16.0561 74.1853 16.046 74.3101 16.0259C74.4348 16.0018 74.5294 15.9837 74.5938 15.9716L74.6904 17.8853C74.5455 17.9296 74.3503 17.9779 74.1048 18.0302C73.8634 18.0825 73.5776 18.1147 73.2476 18.1268C72.6197 18.1509 72.0885 18.0684 71.6538 17.8793C71.2192 17.6861 70.9073 17.3903 70.7181 16.9918C70.529 16.5934 70.4887 16.0923 70.5974 15.4886L72.0825 6.50568Z" fill="black"/>
<g clip-path="url(#clip0_228_65)">
<rect x="2" y="2" width="20" height="20" fill="#021611"/>
<g filter="url(#filter0_f_228_65)">
<ellipse cx="18" cy="20" rx="11" ry="12" fill="#04684C"/>
</g>
<g filter="url(#filter1_f_228_65)">
<ellipse cx="3.9372" cy="6.17989" rx="12.1717" ry="6.81319" transform="rotate(31.5925 3.9372 6.17989)" fill="#A2E8C1"/>
</g>
</g>
<defs>
<filter id="filter0_f_228_65" x="1.9" y="2.9" width="32.2" height="34.2" filterUnits="userSpaceOnUse" color-interpolation-filters="sRGB">
<feFlood flood-opacity="0" result="BackgroundImageFix"/>
<feBlend mode="normal" in="SourceGraphic" in2="BackgroundImageFix" result="shape"/>
<feGaussianBlur stdDeviation="2.55" result="effect1_foregroundBlur_228_65"/>
</filter>
<filter id="filter1_f_228_65" x="-17.4303" y="-12.8422" width="42.7355" height="38.0441" filterUnits="userSpaceOnUse" color-interpolation-filters="sRGB">
<feFlood flood-opacity="0" result="BackgroundImageFix"/>
<feBlend mode="normal" in="SourceGraphic" in2="BackgroundImageFix" result="shape"/>
<feGaussianBlur stdDeviation="5.2" result="effect1_foregroundBlur_228_65"/>
</filter>
<clipPath id="clip0_228_65">
<rect x="2" y="2" width="20" height="20" rx="6" fill="white"/>
</clipPath>
</defs>
</svg>
